<svg xmlns="http://www.w3.org/2000/svg" xmlns:xlink="http://www.w3.org/1999/xlink" width="9px" height="9px" viewBox="0 0 9 9" version="1.1">
<g id="surface1">
<path fill="222933" d="M 7.941406 0.703125 L 7.519531 0.703125 L 7.519531 0 L 6.816406 0 L 6.816406 0.703125 L 2.183594 0.703125 L 2.183594 0 L 1.472656 0 L 1.472656 0.703125 L 1.050781 0.703125 C 0.472656 0.703125 0 1.175781 0 1.753906 L 0 7.941406 C 0 8.523438 0.46875 9 1.050781 9 L 7.941406 9 C 8.222656 9 8.492188 8.890625 8.691406 8.691406 C 8.890625 8.492188 9 8.222656 9 7.941406 L 9 1.753906 C 9 1.171875 8.523438 0.703125 7.941406 0.703125 Z M 1.050781 1.40625 L 1.472656 1.40625 L 1.472656 2.109375 L 2.183594 2.109375 L 2.183594 1.40625 L 6.816406 1.40625 L 6.816406 2.109375 L 7.519531 2.109375 L 7.519531 1.40625 L 7.941406 1.40625 C 8.136719 1.40625 8.296875 1.5625 8.296875 1.753906 L 8.296875 2.597656 L 0.703125 2.597656 L 0.703125 1.753906 C 0.703125 1.5625 0.859375 1.40625 1.050781 1.40625 Z M 7.941406 8.296875 L 1.050781 8.296875 C 0.859375 8.296875 0.703125 8.136719 0.703125 7.941406 L 0.703125 3.300781 L 8.296875 3.300781 L 8.296875 7.941406 C 8.296875 8.035156 8.261719 8.128906 8.195312 8.195312 C 8.128906 8.261719 8.035156 8.296875 7.941406 8.296875 Z M 1.332031 4.042969 L 2.035156 4.042969 L 2.035156 4.746094 L 1.332031 4.746094 Z M 2.738281 4.042969 L 3.441406 4.042969 L 3.441406 4.746094 L 2.738281 4.746094 Z M 4.144531 4.042969 L 4.847656 4.042969 L 4.847656 4.746094 L 4.144531 4.746094 Z M 5.550781 4.042969 L 6.253906 4.042969 L 6.253906 4.746094 L 5.550781 4.746094 Z M 6.957031 4.042969 L 7.660156 4.042969 L 7.660156 4.746094 L 6.957031 4.746094 Z M 1.332031 5.449219 L 2.035156 5.449219 L 2.035156 6.152344 L 1.332031 6.152344 Z M 2.738281 5.449219 L 3.441406 5.449219 L 3.441406 6.152344 L 2.738281 6.152344 Z M 4.144531 5.449219 L 4.847656 5.449219 L 4.847656 6.152344 L 4.144531 6.152344 Z M 5.550781 5.449219 L 6.253906 5.449219 L 6.253906 6.152344 L 5.550781 6.152344 Z M 1.332031 6.855469 L 2.035156 6.855469 L 2.035156 7.558594 L 1.332031 7.558594 Z M 2.738281 6.855469 L 3.441406 6.855469 L 3.441406 7.558594 L 2.738281 7.558594 Z M 4.144531 6.855469 L 4.847656 6.855469 L 4.847656 7.558594 L 4.144531 7.558594 Z M 5.550781 6.855469 L 6.253906 6.855469 L 6.253906 7.558594 L 5.550781 7.558594 Z M 6.957031 5.449219 L 7.660156 5.449219 L 7.660156 6.152344 L 6.957031 6.152344 Z M 6.957031 5.449219 "/>
</g>
</svg>
