<?xml version="1.0" encoding="UTF-8"?>
<svg xmlns="http://www.w3.org/2000/svg" xmlns:xlink="http://www.w3.org/1999/xlink" width="9px" height="9px" viewBox="0 0 9 9" version="1.1">
<g id="surface1">
<path style=" stroke:none;fill-rule:nonzero;fill:rgb(0%,0%,0%);fill-opacity:1;" d="M 4.179688 4.761719 C 4.449219 4.28125 4.960938 3.996094 5.257812 3.570312 C 5.570312 3.121094 5.394531 2.285156 4.503906 2.285156 C 3.917969 2.285156 3.632812 2.726562 3.515625 3.097656 L 2.613281 2.71875 C 2.859375 1.984375 3.523438 1.351562 4.496094 1.351562 C 5.308594 1.351562 5.867188 1.71875 6.152344 2.183594 C 6.394531 2.578125 6.539062 3.324219 6.160156 3.878906 C 5.746094 4.492188 5.347656 4.679688 5.132812 5.070312 C 5.050781 5.230469 5.011719 5.332031 5.011719 5.84375 L 4.007812 5.84375 C 4.007812 5.578125 3.96875 5.140625 4.179688 4.761719 Z M 5.175781 7.199219 C 5.175781 7.574219 4.875 7.875 4.5 7.875 C 4.125 7.875 3.824219 7.574219 3.824219 7.199219 C 3.824219 6.828125 4.125 6.523438 4.5 6.523438 C 4.875 6.523438 5.175781 6.828125 5.175781 7.199219 Z M 5.175781 7.199219 "/>
</g>
</svg>
