<svg xmlns="http://www.w3.org/2000/svg" xmlns:xlink="http://www.w3.org/1999/xlink" width="9px" height="9px" viewBox="0 0 9 9" version="1.1">
<g id="surface1">
<path fill="222933" d="M 7.679688 5.816406 C 7.199219 5.335938 6.617188 4.96875 5.972656 4.746094 C 6.910156 4.101562 7.320312 2.917969 6.984375 1.832031 C 6.648438 0.742188 5.640625 0 4.5 0 C 3.359375 0 2.351562 0.742188 2.015625 1.832031 C 1.679688 2.917969 2.089844 4.101562 3.027344 4.746094 C 1.214844 5.375 0 7.082031 0 9 L 0.703125 9 C 0.703125 6.902344 2.402344 5.203125 4.5 5.203125 C 6.597656 5.203125 8.296875 6.902344 8.296875 9 L 9 9 C 9.003906 7.804688 8.527344 6.660156 7.679688 5.816406 Z M 2.601562 2.601562 C 2.601562 1.550781 3.453125 0.703125 4.5 0.703125 C 5.546875 0.703125 6.398438 1.550781 6.398438 2.601562 C 6.398438 3.648438 5.546875 4.5 4.5 4.5 C 3.453125 4.5 2.601562 3.648438 2.601562 2.601562 Z M 2.601562 2.601562 "/>
</g>
</svg>
